<mxfile host="65bd71144e">
    <diagram id="SHC9S5_GEQP6PEkNb5Ij" name="Page-1">
        <mxGraphModel dx="362" dy="313" grid="1" gridSize="10" guides="1" tooltips="1" connect="1" arrows="1" fold="1" page="1" pageScale="1" pageWidth="850" pageHeight="1100" math="0" shadow="0">
            <root>
                <mxCell id="0"/>
                <mxCell id="1" parent="0"/>
                <mxCell id="8" value="" style="edgeStyle=none;html=1;rounded=1;" parent="1" target="4" edge="1">
                    <mxGeometry relative="1" as="geometry">
                        <mxPoint x="224.20000000000005" y="50" as="sourcePoint"/>
                    </mxGeometry>
                </mxCell>
                <mxCell id="14" style="edgeStyle=none;html=1;exitX=1;exitY=1;exitDx=0;exitDy=0;entryX=0;entryY=0;entryDx=0;entryDy=0;rounded=1;" parent="1" source="4" target="6" edge="1">
                    <mxGeometry relative="1" as="geometry"/>
                </mxCell>
                <mxCell id="15" style="edgeStyle=none;html=1;exitX=0;exitY=1;exitDx=0;exitDy=0;entryX=1;entryY=0;entryDx=0;entryDy=0;rounded=1;" parent="1" source="4" target="7" edge="1">
                    <mxGeometry relative="1" as="geometry"/>
                </mxCell>
                <mxCell id="4" value="" style="whiteSpace=wrap;html=1;rounded=1;" parent="1" vertex="1">
                    <mxGeometry x="190" y="140" width="60" height="30" as="geometry"/>
                </mxCell>
                <mxCell id="18" style="edgeStyle=none;html=1;exitX=0;exitY=1;exitDx=0;exitDy=0;entryX=0.5;entryY=0;entryDx=0;entryDy=0;rounded=1;" parent="1" source="6" edge="1">
                    <mxGeometry relative="1" as="geometry">
                        <mxPoint x="255" y="270" as="targetPoint"/>
                    </mxGeometry>
                </mxCell>
                <mxCell id="19" style="edgeStyle=none;html=1;exitX=1;exitY=1;exitDx=0;exitDy=0;entryX=0.25;entryY=0;entryDx=0;entryDy=0;rounded=1;" parent="1" source="6" edge="1">
                    <mxGeometry relative="1" as="geometry">
                        <mxPoint x="375" y="270" as="targetPoint"/>
                    </mxGeometry>
                </mxCell>
                <mxCell id="6" value="" style="whiteSpace=wrap;html=1;rounded=1;" parent="1" vertex="1">
                    <mxGeometry x="280" y="200" width="70" height="20" as="geometry"/>
                </mxCell>
                <mxCell id="37" style="edgeStyle=none;html=1;exitX=0.5;exitY=1;exitDx=0;exitDy=0;entryX=0.25;entryY=0;entryDx=0;entryDy=0;rounded=1;" parent="1" source="7" target="54" edge="1">
                    <mxGeometry relative="1" as="geometry">
                        <mxPoint x="100" y="260" as="targetPoint"/>
                    </mxGeometry>
                </mxCell>
                <mxCell id="38" style="edgeStyle=none;html=1;exitX=0.5;exitY=1;exitDx=0;exitDy=0;entryX=0.25;entryY=0;entryDx=0;entryDy=0;rounded=1;" parent="1" source="7" target="55" edge="1">
                    <mxGeometry relative="1" as="geometry">
                        <mxPoint x="140" y="260" as="targetPoint"/>
                    </mxGeometry>
                </mxCell>
                <mxCell id="40" style="html=1;exitX=0.5;exitY=1;exitDx=0;exitDy=0;entryX=0.5;entryY=0;entryDx=0;entryDy=0;rounded=1;" parent="1" source="7" target="53" edge="1">
                    <mxGeometry relative="1" as="geometry">
                        <mxPoint x="30" y="260" as="targetPoint"/>
                    </mxGeometry>
                </mxCell>
                <mxCell id="66" style="edgeStyle=none;html=1;exitX=0.5;exitY=1;exitDx=0;exitDy=0;rounded=1;" edge="1" parent="1" source="7" target="52">
                    <mxGeometry relative="1" as="geometry"/>
                </mxCell>
                <mxCell id="7" value="head" style="whiteSpace=wrap;html=1;rounded=1;labelBackgroundColor=none;labelBorderColor=none;fillColor=#60a917;fontColor=#ffffff;strokeColor=#2D7600;" parent="1" vertex="1">
                    <mxGeometry x="80" y="200" width="60" height="20" as="geometry"/>
                </mxCell>
                <mxCell id="35" value="" style="edgeStyle=none;html=1;endArrow=none;rounded=1;" parent="1" edge="1">
                    <mxGeometry relative="1" as="geometry">
                        <mxPoint x="80" y="270" as="targetPoint"/>
                        <mxPoint x="80" y="270" as="sourcePoint"/>
                    </mxGeometry>
                </mxCell>
                <mxCell id="41" value="Window" style="text;strokeColor=#006EAF;align=center;fillColor=#1ba1e2;html=1;verticalAlign=middle;whiteSpace=wrap;rounded=1;fontColor=#ffffff;" parent="1" vertex="1">
                    <mxGeometry x="195" y="15" width="60" height="30" as="geometry"/>
                </mxCell>
                <mxCell id="45" value="document" style="text;strokeColor=#3700CC;align=center;fillColor=#6a00ff;html=1;verticalAlign=middle;whiteSpace=wrap;rounded=1;fontColor=#ffffff;" parent="1" vertex="1">
                    <mxGeometry x="190" y="75" width="60" height="30" as="geometry"/>
                </mxCell>
                <mxCell id="46" value="html" style="text;strokeColor=#6F0000;align=center;fillColor=#a20025;html=1;verticalAlign=middle;whiteSpace=wrap;rounded=1;fontColor=#ffffff;" parent="1" vertex="1">
                    <mxGeometry x="190" y="140" width="60" height="30" as="geometry"/>
                </mxCell>
                <mxCell id="51" value="body" style="text;strokeColor=#2D7600;align=center;fillColor=#60a917;html=1;verticalAlign=middle;whiteSpace=wrap;rounded=1;fontColor=#ffffff;" parent="1" vertex="1">
                    <mxGeometry x="280" y="200" width="70" height="20" as="geometry"/>
                </mxCell>
                <mxCell id="52" value="meta" style="text;strokeColor=#B09500;align=center;fillColor=#e3c800;html=1;verticalAlign=middle;whiteSpace=wrap;rounded=1;fontColor=#000000;" parent="1" vertex="1">
                    <mxGeometry x="50" y="270.94" width="40" height="20" as="geometry"/>
                </mxCell>
                <mxCell id="53" value="meta" style="text;strokeColor=#B09500;align=center;fillColor=#e3c800;html=1;verticalAlign=middle;whiteSpace=wrap;rounded=1;fontColor=#000000;" parent="1" vertex="1">
                    <mxGeometry x="10" y="270" width="30" height="20" as="geometry"/>
                </mxCell>
                <mxCell id="54" value="title" style="text;strokeColor=#B09500;align=center;fillColor=#e3c800;html=1;verticalAlign=middle;whiteSpace=wrap;rounded=1;fontColor=#000000;" parent="1" vertex="1">
                    <mxGeometry x="100" y="270.94" width="40" height="19.06" as="geometry"/>
                </mxCell>
                <mxCell id="55" value="link" style="text;strokeColor=#B09500;align=center;fillColor=#e3c800;html=1;verticalAlign=middle;whiteSpace=wrap;rounded=1;fontColor=#000000;" parent="1" vertex="1">
                    <mxGeometry x="150" y="270" width="40" height="20" as="geometry"/>
                </mxCell>
                <mxCell id="68" style="edgeStyle=none;html=1;exitX=0.5;exitY=1;exitDx=0;exitDy=0;entryX=0.5;entryY=0;entryDx=0;entryDy=0;" edge="1" parent="1" source="56" target="58">
                    <mxGeometry relative="1" as="geometry"/>
                </mxCell>
                <mxCell id="69" style="edgeStyle=none;html=1;exitX=0.5;exitY=1;exitDx=0;exitDy=0;entryX=0.5;entryY=0;entryDx=0;entryDy=0;" edge="1" parent="1" source="56" target="59">
                    <mxGeometry relative="1" as="geometry"/>
                </mxCell>
                <mxCell id="70" style="edgeStyle=none;html=1;exitX=0.5;exitY=1;exitDx=0;exitDy=0;entryX=0.25;entryY=0;entryDx=0;entryDy=0;" edge="1" parent="1" source="56" target="67">
                    <mxGeometry relative="1" as="geometry"/>
                </mxCell>
                <mxCell id="71" style="edgeStyle=none;html=1;exitX=0.5;exitY=1;exitDx=0;exitDy=0;entryX=0.5;entryY=0;entryDx=0;entryDy=0;" edge="1" parent="1" source="56" target="61">
                    <mxGeometry relative="1" as="geometry"/>
                </mxCell>
                <mxCell id="56" value="div" style="text;strokeColor=#B09500;align=center;fillColor=#e3c800;html=1;verticalAlign=middle;whiteSpace=wrap;rounded=1;fontColor=#000000;" parent="1" vertex="1">
                    <mxGeometry x="225" y="268.44" width="55" height="25" as="geometry"/>
                </mxCell>
                <mxCell id="57" value="script" style="text;strokeColor=#B09500;align=center;fillColor=#e3c800;html=1;verticalAlign=middle;whiteSpace=wrap;rounded=1;fontColor=#000000;" parent="1" vertex="1">
                    <mxGeometry x="350" y="270" width="50" height="30" as="geometry"/>
                </mxCell>
                <mxCell id="58" value="img" style="text;strokeColor=#314354;align=center;fillColor=#647687;html=1;verticalAlign=middle;whiteSpace=wrap;rounded=1;fontColor=#ffffff;" parent="1" vertex="1">
                    <mxGeometry x="150" y="330" width="60" height="20" as="geometry"/>
                </mxCell>
                <mxCell id="59" value="h1" style="text;strokeColor=#314354;align=center;fillColor=#647687;html=1;verticalAlign=middle;whiteSpace=wrap;rounded=1;fontColor=#ffffff;" parent="1" vertex="1">
                    <mxGeometry x="210" y="330" width="60" height="20" as="geometry"/>
                </mxCell>
                <mxCell id="61" value="div" style="text;strokeColor=#314354;align=center;fillColor=#647687;html=1;verticalAlign=middle;whiteSpace=wrap;rounded=1;fontColor=#ffffff;" parent="1" vertex="1">
                    <mxGeometry x="330" y="330" width="50" height="20" as="geometry"/>
                </mxCell>
                <mxCell id="67" value="p" style="text;strokeColor=#314354;align=center;fillColor=#647687;html=1;verticalAlign=middle;whiteSpace=wrap;rounded=1;fontColor=#ffffff;" vertex="1" parent="1">
                    <mxGeometry x="270" y="330" width="60" height="20" as="geometry"/>
                </mxCell>
                <mxCell id="75" style="edgeStyle=none;html=1;exitX=0;exitY=0.5;exitDx=0;exitDy=0;entryX=1;entryY=0.75;entryDx=0;entryDy=0;" edge="1" parent="1" source="74" target="41">
                    <mxGeometry relative="1" as="geometry"/>
                </mxCell>
                <mxCell id="76" style="edgeStyle=none;html=1;exitX=0;exitY=0.5;exitDx=0;exitDy=0;entryX=1;entryY=0.75;entryDx=0;entryDy=0;" edge="1" parent="1" source="74" target="45">
                    <mxGeometry relative="1" as="geometry"/>
                </mxCell>
                <mxCell id="77" style="edgeStyle=none;html=1;exitX=0;exitY=0.5;exitDx=0;exitDy=0;entryX=1;entryY=0.5;entryDx=0;entryDy=0;" edge="1" parent="1" source="74" target="46">
                    <mxGeometry relative="1" as="geometry"/>
                </mxCell>
                <mxCell id="74" value="node" style="text;strokeColor=none;align=center;fillColor=none;html=1;verticalAlign=middle;whiteSpace=wrap;rounded=0;shadow=0;" vertex="1" parent="1">
                    <mxGeometry x="310" y="70" width="60" height="30" as="geometry"/>
                </mxCell>
            </root>
        </mxGraphModel>
    </diagram>
</mxfile>